<svg width="353" height="369" viewBox="0 0 353 369" fill="none" xmlns="http://www.w3.org/2000/svg">
<g clip-path="url(#clip0)">
<path d="M337.988 115.694C347.294 30.5804 265.119 1.008 206.864 22.8014C148.136 44.7707 134.521 8.35122 51.9398 18.7577C-31.6775 29.2929 10.7762 161.101 10.7762 161.101C10.7762 161.101 24.0813 275.716 39.8436 328.546C55.521 381.092 205.59 362.081 242.093 360.512C278.388 358.953 309.925 361.956 341.506 304.268C373.027 246.68 328.708 200.526 337.988 115.694Z" fill="#F4F7FA"/>
<path d="M251.819 17.0345C246.598 13.3767 239.002 11.7755 232.697 11.8463C187.998 12.3503 189.148 106.156 197.669 126.439C206.191 146.722 202.333 153.93 168.228 167.722C134.123 181.515 152.63 201.127 157.903 213.055C163.175 224.982 172.468 234.658 147.954 248.964C123.44 263.27 132.924 270.094 132.924 270.094C132.924 270.094 183.925 314.54 180.062 299.282C176.198 284.025 178.994 260.273 221.031 255.019C239.136 252.757 266.253 241.764 270.811 221.713C271.874 217.046 272.304 210.015 270.827 205.396C268.779 198.99 264.088 194.195 261.215 188.244C254.518 174.374 267.516 162.739 274.706 152.506C278.46 147.164 282.202 141.692 284.923 135.73C290.573 123.351 287.057 110.864 278.958 100.556C275.073 95.6103 269.817 90.4497 267.8 84.3415C265.633 77.7792 266.294 68.5001 266.115 61.5729C265.974 56.1406 266.046 50.7123 265.301 45.3154C263.906 35.2751 260.547 23.1506 251.819 17.0345Z" fill="url(#paint0_linear)"/>
<g style="mix-blend-mode:soft-light" opacity="0.8">
<g style="mix-blend-mode:soft-light" opacity="0.8">
<path d="M131.438 297.527C131.284 297.611 131.104 297.629 130.937 297.579C130.77 297.529 130.629 297.414 130.546 297.26C130.463 297.105 130.445 296.924 130.495 296.757C130.545 296.589 130.659 296.448 130.813 296.365C131.002 296.245 149.952 284.148 170.638 265.095C189.698 247.538 214.174 220.315 222.526 190.327C229.508 165.278 234.405 124.421 235.955 78.2307C237.344 36.8107 235.613 6.40354 233.135 0.937136C233.099 0.858025 233.079 0.772662 233.077 0.685919C233.074 0.599177 233.088 0.512755 233.119 0.431587C233.15 0.35042 233.196 0.276096 233.255 0.21286C233.314 0.149624 233.385 0.0987134 233.464 0.0630359C233.543 0.0273584 233.628 0.00761231 233.714 0.00492507C233.8 0.00223782 233.887 0.016662 233.967 0.0473741C234.048 0.0780862 234.122 0.124485 234.185 0.183921C234.248 0.243356 234.299 0.314666 234.334 0.393777C237.233 6.78809 238.525 41.0001 237.274 78.2805C235.721 124.574 230.811 165.545 223.803 190.689C215.358 220.986 190.707 248.416 171.513 266.093C150.742 285.222 131.707 297.37 131.519 297.489C131.493 297.504 131.465 297.517 131.438 297.527Z" fill="white"/>
</g>
<g style="mix-blend-mode:soft-light" opacity="0.8">
<path d="M236.533 86.1895C236.203 86.3404 235.849 86.2735 235.696 85.9427C235.495 85.5057 215.269 42.1183 193.081 33.7763C193 33.7477 192.927 33.7032 192.864 33.6456C192.802 33.5879 192.751 33.5182 192.716 33.4406C192.681 33.3629 192.662 33.279 192.659 33.1937C192.657 33.1085 192.672 33.0236 192.703 32.9442C192.733 32.8626 192.78 32.7879 192.84 32.7246C192.899 32.6613 192.971 32.6105 193.051 32.5753C193.13 32.5401 193.216 32.5212 193.302 32.5196C193.389 32.5181 193.476 32.5339 193.556 32.5662C216.252 41.0972 236.057 83.5751 236.891 85.3823C237.044 85.7144 236.867 86.0385 236.537 86.1882L236.533 86.1895Z" fill="white"/>
</g>
<g style="mix-blend-mode:soft-light" opacity="0.8">
<path d="M232.702 138.756C232.56 138.833 232.395 138.854 232.238 138.816C232.081 138.777 231.944 138.682 231.853 138.548C231.762 138.415 231.723 138.252 231.745 138.091C231.766 137.931 231.846 137.784 231.969 137.679C232.082 137.568 243.456 126.515 257.814 116.843C277.213 103.775 292.537 99.3101 303.353 103.572C303.433 103.603 303.507 103.651 303.569 103.711C303.632 103.771 303.681 103.843 303.716 103.923C303.751 104.003 303.769 104.088 303.771 104.175C303.773 104.262 303.757 104.348 303.726 104.429C303.694 104.51 303.647 104.584 303.587 104.647C303.527 104.709 303.455 104.76 303.376 104.794C303.297 104.829 303.211 104.848 303.125 104.85C303.038 104.851 302.952 104.836 302.872 104.804C277.983 94.9987 233.333 138.19 232.885 138.627C232.832 138.681 232.77 138.724 232.702 138.756Z" fill="white"/>
</g>
<g style="mix-blend-mode:soft-light" opacity="0.8">
<path d="M188.281 249.219C188.186 249.265 188.081 249.286 187.976 249.281C187.871 249.277 187.768 249.247 187.677 249.194C187.585 249.141 187.508 249.067 187.452 248.978C187.395 248.888 187.361 248.787 187.352 248.681C187.334 248.49 185.424 229.316 179.771 209.415C174.584 191.172 165.106 168.558 149.41 164.462C149.241 164.418 149.096 164.308 149.008 164.157C148.919 164.005 148.894 163.825 148.938 163.655C148.982 163.485 149.092 163.34 149.242 163.251C149.393 163.162 149.573 163.137 149.742 163.181C162.83 166.593 173.362 182.035 181.044 209.069C186.733 229.084 188.65 248.361 188.669 248.553C188.683 248.691 188.653 248.83 188.583 248.95C188.514 249.069 188.408 249.164 188.281 249.219Z" fill="white"/>
</g>
<g style="mix-blend-mode:soft-light" opacity="0.8">
<path d="M212.894 215.959C212.749 216.041 212.578 216.065 212.416 216.025C212.255 215.985 212.114 215.884 212.024 215.743C211.933 215.603 211.9 215.433 211.93 215.268C211.961 215.103 212.053 214.957 212.187 214.858C214.174 213.112 261.069 172.148 280.824 174.061C280.91 174.07 280.993 174.095 281.069 174.136C281.145 174.177 281.212 174.233 281.267 174.3C281.322 174.367 281.363 174.444 281.387 174.527C281.412 174.61 281.421 174.697 281.412 174.783C281.404 174.869 281.378 174.953 281.337 175.029C281.297 175.106 281.241 175.173 281.175 175.228C281.108 175.283 281.031 175.324 280.948 175.349C280.866 175.374 280.779 175.382 280.693 175.374C261.5 173.515 213.534 215.426 213.051 215.849C213.005 215.893 212.952 215.93 212.894 215.959Z" fill="white"/>
</g>
</g>
<path d="M340.619 58.083C337.376 52.5812 331.122 47.9639 325.355 45.4059C284.468 27.2717 246.811 113.129 246.194 135.127C245.577 157.125 239.096 162.088 202.367 160.458C165.638 158.828 174.389 184.372 174.266 197.42C174.143 210.469 178.611 223.145 150.397 225.965C122.183 228.786 127.999 238.948 127.999 238.948C127.999 238.948 156.082 300.618 158.859 285.123C161.637 269.628 173.981 249.175 214.407 261.881C231.82 267.354 261.032 268.622 273.455 252.276C276.348 248.47 279.64 242.25 280.201 237.432C280.985 230.749 278.688 224.439 278.529 217.821C278.156 202.412 294.785 197.229 305.551 190.907C311.171 187.606 316.833 184.183 321.771 179.889C332.02 170.972 333.973 158.145 330.856 145.388C329.362 139.271 326.703 132.395 327.389 125.988C328.127 119.109 332.555 110.944 335.25 104.565C337.363 99.562 339.667 94.6508 341.215 89.4298C344.095 79.7137 346.04 67.2794 340.619 58.083Z" fill="url(#paint1_linear)"/>
<g style="mix-blend-mode:soft-light" opacity="0.8">
<g style="mix-blend-mode:soft-light" opacity="0.8">
<path d="M115.335 263.29C115.162 263.302 114.991 263.244 114.86 263.13C114.729 263.015 114.649 262.853 114.638 262.679C114.626 262.505 114.683 262.333 114.797 262.202C114.912 262.07 115.073 261.99 115.247 261.978C115.467 261.948 137.707 258.828 164.389 250.086C188.98 242.036 222.488 227.442 242.467 203.625C259.153 183.733 280.462 148.581 300.93 107.185C319.282 70.0645 330.249 41.6694 330.249 35.6623C330.249 35.4867 330.319 35.3182 330.442 35.1941C330.566 35.0699 330.734 35.0001 330.909 35.0001C331.084 35.0001 331.251 35.0699 331.375 35.1941C331.499 35.3182 331.568 35.4867 331.568 35.6623C331.568 42.6879 318.629 74.3628 302.11 107.773C281.598 149.26 260.226 184.507 243.474 204.476C223.29 228.538 189.536 243.248 164.774 251.351C137.98 260.12 115.641 263.258 115.419 263.294C115.391 263.295 115.363 263.294 115.335 263.29Z" fill="white"/>
</g>
<g style="mix-blend-mode:soft-light" opacity="0.8">
<path d="M298.177 114.841C298.004 114.838 297.84 114.768 297.717 114.646C297.595 114.523 297.526 114.358 297.523 114.184C297.523 113.703 297.012 65.7544 280.259 48.9313C280.136 48.8072 280.066 48.6388 280.066 48.4632C280.066 48.2876 280.135 48.1191 280.259 47.9948C280.382 47.8706 280.55 47.8007 280.725 47.8006C280.9 47.8004 281.068 47.8701 281.191 47.9942C298.327 65.2019 298.829 112.184 298.836 114.176C298.837 114.352 298.769 114.521 298.647 114.647C298.524 114.772 298.357 114.844 298.182 114.846L298.177 114.841Z" fill="white"/>
</g>
<g style="mix-blend-mode:soft-light" opacity="0.8">
<path d="M273.003 160.908C272.843 160.917 272.685 160.867 272.559 160.767C272.433 160.667 272.348 160.524 272.321 160.365C272.293 160.206 272.325 160.043 272.41 159.906C272.495 159.769 272.627 159.668 272.781 159.623C272.93 159.569 287.841 154.242 304.9 151.412C327.949 147.589 343.736 149.9 351.821 158.279C351.881 158.341 351.928 158.415 351.96 158.496C351.992 158.577 352.008 158.663 352.006 158.75C352.005 158.836 351.986 158.922 351.952 159.002C351.917 159.081 351.868 159.153 351.805 159.214C351.743 159.274 351.67 159.321 351.59 159.353C351.509 159.385 351.423 159.401 351.337 159.399C351.251 159.398 351.165 159.379 351.086 159.345C351.007 159.31 350.935 159.26 350.875 159.198C332.267 139.919 273.811 160.655 273.223 160.866C273.152 160.892 273.078 160.907 273.003 160.908Z" fill="white"/>
</g>
<g style="mix-blend-mode:soft-light" opacity="0.8">
<path d="M187.002 242.972C186.896 242.974 186.792 242.949 186.698 242.901C186.604 242.853 186.523 242.784 186.462 242.697C186.401 242.611 186.361 242.512 186.347 242.407C186.332 242.302 186.343 242.195 186.378 242.096C186.44 241.913 192.613 223.669 195.675 203.202C198.481 184.434 199.183 159.914 186.587 149.653C186.452 149.543 186.365 149.383 186.347 149.208C186.328 149.033 186.38 148.859 186.49 148.722C186.6 148.586 186.76 148.499 186.934 148.481C187.107 148.462 187.281 148.514 187.417 148.624C197.92 157.178 201.141 175.611 196.975 203.412C193.895 223.994 187.688 242.338 187.625 242.523C187.582 242.655 187.498 242.769 187.386 242.849C187.274 242.93 187.139 242.973 187.002 242.972Z" fill="white"/>
</g>
<g style="mix-blend-mode:soft-light" opacity="0.8">
<path d="M223.124 222.939C222.958 222.954 222.792 222.905 222.66 222.801C222.529 222.697 222.442 222.547 222.418 222.381C222.393 222.214 222.433 222.045 222.53 221.908C222.626 221.77 222.771 221.675 222.935 221.642C225.463 220.881 285.047 203.106 302.235 213.065C302.387 213.152 302.498 213.296 302.543 213.465C302.589 213.634 302.566 213.815 302.48 213.967C302.393 214.119 302.25 214.23 302.081 214.276C301.913 214.322 301.733 214.299 301.582 214.212C284.88 204.537 223.932 222.726 223.319 222.911C223.256 222.93 223.19 222.939 223.124 222.939Z" fill="white"/>
</g>
</g>
<path d="M265.036 53.0905L42.0015 40.1338C36.865 39.8818 32.2409 45.5149 32.2409 50.2398V338.64C32.2409 345.195 38.9066 346.515 44.0456 345.99L265.036 323.326C269.073 322.913 272.331 319.203 272.331 315.04V60.9875C272.331 56.8297 269.073 53.286 265.036 53.0905Z" fill="url(#paint2_linear)"/>
<path d="M268.704 50.8001L45.2297 39.7597C40.0933 39.5064 35.9096 43.1603 35.9096 47.9245V338.578C35.9096 343.341 40.0919 346.771 45.2297 346.241L268.704 323.141C272.742 322.724 276 318.986 276 314.79V58.7576C276 54.5616 272.742 50.9996 268.704 50.8001Z" fill="#D8DEE8"/>
<path style="mix-blend-mode:multiply" opacity="0.3" d="M45.2298 342.298C42.4589 342.579 40.1992 340.723 40.1992 338.153V48.1189C40.1992 45.5517 42.4589 43.5712 45.2298 43.7024L268.704 54.3019C270.887 54.4056 272.658 56.3362 272.658 58.6067V315.122C272.658 317.393 270.887 319.419 268.704 319.64L45.2298 342.298Z" fill="url(#paint3_linear)"/>
<path d="M254.301 312.761L63.1617 331.254V63.6715L254.301 70.9005V312.761Z" fill="white"/>
<g style="mix-blend-mode:multiply" opacity="0.3">
<path d="M177.851 72.2104L101.462 73.1698L103.175 55.8702C103.306 53.622 104.923 51.7767 107.053 51.4486L119.992 49.4523C120.752 49.3287 121.47 49.0175 122.081 48.5468C122.692 48.0761 123.177 47.4605 123.492 46.7552L124.895 43.6958L158.733 45.7958L177.851 72.2104Z" fill="#97A6B7"/>
</g>
<path d="M218.644 60.9875C218.487 60.0547 218.014 59.2049 217.305 58.5819C216.596 57.9589 215.695 57.6009 214.753 57.5685L202.547 57.0186C197.007 56.7692 192.946 52.2491 193.148 46.5189L193.619 33.2525C193.707 30.7995 191.962 28.8335 189.567 28.6891L185.557 28.4489C182.499 28.2652 180.46 25.5615 180.893 22.4286C181.643 16.9583 177.91 12.2374 172.501 11.8673C167.049 11.4945 161.96 15.6734 161.148 21.2172C161.03 22.0548 160.741 22.8589 160.3 23.5797C159.04 25.6087 156.832 26.7296 154.671 26.5983L150.534 26.3503C148.027 26.1993 145.646 27.9672 145.011 30.453L141.571 43.9189C140.083 49.7423 134.471 53.9514 128.513 53.6823L115.122 53.0799C112.929 52.9814 110.778 54.2611 109.764 56.277L101.696 72.3547C101.034 73.6672 101.849 75.0938 103.289 75.1424L219.406 79.0154C220.676 79.0574 221.759 77.7857 221.521 76.5218L218.644 60.9875ZM170.849 23.3539C169.249 23.2542 168.139 21.8577 168.365 20.2355C168.591 18.6133 170.084 17.3822 171.684 17.4872C173.284 17.5922 174.384 18.9874 174.151 20.6056C173.919 22.2239 172.446 23.4537 170.849 23.3539Z" fill="url(#paint4_linear)"/>
<path d="M219.332 61.3472C219.175 60.4141 218.701 59.5642 217.992 58.9412C217.283 58.3182 216.381 57.9603 215.439 57.9282L203.237 57.3783C197.697 57.1289 193.636 52.6088 193.839 46.8786L194.309 33.6122C194.397 31.1592 192.652 29.1931 190.257 29.0488L186.246 28.8152C183.188 28.6314 181.149 25.9277 181.582 22.7949C182.325 17.3245 178.593 12.5997 173.176 12.2322C167.725 11.8595 162.636 16.0383 161.824 21.5822C161.705 22.4197 161.417 23.2239 160.976 23.9446C159.716 25.9737 157.508 27.0945 155.346 26.9633L151.219 26.7139C148.712 26.563 146.331 28.3309 145.696 30.8167L142.256 44.2825C140.768 50.1059 135.156 54.315 129.197 54.0459L115.799 53.4435C113.606 53.3451 111.455 54.6247 110.441 56.6407L102.373 72.7183C101.711 74.0308 102.526 75.4574 103.966 75.506L220.097 79.3778C221.368 79.4198 222.45 78.148 222.212 76.8841L219.332 61.3472ZM171.537 23.7136C169.938 23.6139 168.828 22.2174 169.054 20.5952C169.28 18.973 170.773 17.7419 172.373 17.8469C173.972 17.9519 175.073 19.3471 174.84 20.9653C174.608 22.5836 173.133 23.8134 171.537 23.7136Z" fill="#97A6B7"/>
<g style="mix-blend-mode:soft-light" opacity="0.5">
<path d="M199.46 68.735C189.102 62.3144 181.154 66.8673 174.699 59.6252C167.789 51.8725 172.45 41.6668 165.299 36.85C160.725 33.767 156.638 36.4865 151.314 35.6517C149.366 35.3459 147.285 34.5677 145.123 33.0518L142.254 44.2825C140.767 50.1059 135.155 54.315 129.196 54.0459L115.799 53.4435C113.606 53.345 111.455 54.6247 110.441 56.6406L102.373 72.7183C101.711 74.0308 102.526 75.4574 103.966 75.5047L209.493 79.0247C206.845 74.7854 203.542 71.2667 199.46 68.735Z" fill="white"/>
</g>
<path d="M109.191 158.629C88.614 159.297 71.2127 143.222 71.2127 122.499C71.2127 101.468 89.078 84.915 110.172 85.8442C130.37 86.7341 145.763 103.444 145.259 122.888C144.762 142.069 128.911 157.988 109.191 158.629Z" fill="#D8DEE8"/>
<path d="M142.892 122.875C142.441 140.817 127.655 155.629 109.225 156.18C90.0517 156.754 73.947 141.796 73.9666 122.513C73.9849 102.967 90.5144 87.6016 110.139 88.4166C128.984 89.1949 143.348 104.704 142.892 122.875Z" fill="white"/>
<path d="M73.943 146.124C73.943 146.124 105.346 128.071 142.34 144.847C142.34 144.847 137.341 159.479 109.157 161.181C79.2154 162.989 73.943 146.124 73.943 146.124Z" fill="url(#paint5_linear)"/>
<path d="M104.202 122.672L102.946 131.101C102.554 136.442 97.0951 138.504 97.0951 138.504C103.388 145.74 115.433 145.256 119.726 138.315C116.85 137.291 113.666 132.942 113.583 129.871L113.398 122.715L104.202 122.672Z" fill="url(#paint6_linear)"/>
<path d="M118.302 115.33C118.186 122.417 113.736 130.014 108.344 130.03C102.892 130.043 98.4987 122.315 98.568 115.067C98.6373 107.789 103.182 103.904 108.683 104.043C114.121 104.179 118.413 108.202 118.302 115.33Z" fill="url(#paint7_linear)"/>
<path d="M98.2531 116.898L99.9103 116.662C99.6633 116.066 98.6439 113.42 99.9652 111.135C101.234 108.942 104.176 107.92 106.405 108.117C108.93 108.333 110.428 109.508 111.702 108.642C112.418 108.159 112.661 107.258 112.748 106.555C112.816 107.197 112.979 107.825 113.23 108.42C114.134 110.551 115.713 111.019 116.547 112.425C117.11 113.372 117.462 114.944 116.463 117.686L117.889 117.618C118.602 115.533 119.131 113.389 119.471 111.211C120.093 107.222 120.516 104.471 118.966 103.085C118.655 102.808 117.278 101.705 113.915 102.62C112.555 101.153 110.846 100.057 108.948 99.4348C108.063 99.1486 103.663 97.7286 99.6986 100.407C96.997 102.233 94.8627 105.721 95.5162 108.66C95.86 110.21 96.8311 110.921 97.6623 113.91C97.9371 114.889 98.1346 115.888 98.2531 116.898Z" fill="url(#paint8_linear)"/>
<path d="M116.909 117.937C116.909 117.937 117.583 114.83 119.471 115.163C121.358 115.497 118.564 120.556 116.857 121.155L116.909 117.937Z" fill="url(#paint9_linear)"/>
<path d="M99.7822 117.759C99.7822 117.759 99.1653 114.578 97.1865 114.872C95.2077 115.166 97.9903 120.405 99.7496 121.04L99.7822 117.759Z" fill="url(#paint10_linear)"/>
<path d="M248.383 114.665L169.704 114.276V103.699L248.383 104.513V114.665Z" fill="#D8DEE8"/>
<path d="M248.383 127.464L169.704 127.611V119.794L248.383 119.962V127.464Z" fill="#D8DEE8"/>
<path d="M248.383 140.264L169.704 140.947V133.13L248.383 132.761V140.264Z" fill="#D8DEE8"/>
<path d="M85.8079 185.288L75.3742 185.62V174.052L85.8079 173.782V185.288Z" fill="url(#paint11_linear)"/>
<path d="M248.383 179.104L93.6315 183.642V175.521L248.383 171.602V179.104Z" fill="#D8DEE8"/>
<path d="M85.8079 203.026L75.3742 203.453V191.886L85.8079 191.52V203.026Z" fill="url(#paint12_linear)"/>
<path d="M248.383 195.435L93.6315 201.319V193.197L248.383 187.931V195.435Z" fill="#D8DEE8"/>
<path d="M85.8079 220.285L75.3742 220.805V209.718L85.8079 209.259V220.285Z" fill="url(#paint13_linear)"/>
<path d="M248.383 211.766L93.6315 218.996V210.875L248.383 204.262V211.766Z" fill="#D8DEE8"/>
<path d="M85.8079 238.024L75.3742 238.638V227.552L85.8079 226.997V238.024Z" fill="url(#paint14_linear)"/>
<path d="M248.383 228.097L93.6315 236.672V228.551L248.383 220.594V228.097Z" fill="#D8DEE8"/>
<path d="M248.383 252.372L76.2447 264.117V255.446L248.383 244.428V252.372Z" fill="#D8DEE8"/>
<path d="M248.383 267.379L76.2447 280.497V272.307L248.383 259.875V267.379Z" fill="#D8DEE8"/>
<path d="M248.383 282.384L76.2447 296.876V288.686L248.383 274.881V282.384Z" fill="#D8DEE8"/>
<path d="M248.383 297.391L76.2447 313.257V305.067L248.383 289.888V297.391Z" fill="#D8DEE8"/>
<path d="M90.3366 347.186C93.8785 350.061 99.262 349.271 102.361 345.42C105.46 341.569 105.106 336.116 101.562 333.241C101.379 333.091 101.187 332.958 100.995 332.828C102.226 330.627 103.295 328.337 104.193 325.979C104.421 326.027 104.651 326.072 104.887 326.101C109.505 326.665 113.989 323.255 114.904 318.489C115.819 313.722 112.813 309.389 108.199 308.824C107.957 308.795 107.717 308.782 107.478 308.774C107.506 306.333 107.346 303.893 106.999 301.476C107.233 301.399 107.469 301.316 107.701 301.214C112.157 299.317 114.539 294.2 113.023 289.784C111.507 285.367 106.665 283.326 102.209 285.223C101.981 285.32 101.762 285.432 101.545 285.544C100.367 283.505 99.0202 281.568 97.5185 279.755C97.691 279.573 97.8609 279.386 98.0217 279.187C101.122 275.336 104.978 271.231 101.391 268.41C93.0957 261.887 88.2977 264.923 85.1962 268.773C85.0354 268.972 84.8904 269.178 84.7479 269.385C82.6683 268.291 80.5006 267.374 78.2678 266.644C78.3332 266.406 78.3985 266.169 78.4417 265.925C79.3566 261.152 81.3066 258.881 76.7766 257.817C66.8996 255.5 62.6349 259.105 61.72 263.878C61.6717 264.128 61.6416 264.374 61.6142 264.621C59.1884 264.787 56.779 265.141 54.4074 265.679C54.3486 265.445 54.2872 265.212 54.2074 264.981C52.6913 260.566 47.8489 258.524 43.3934 260.42C38.9379 262.317 36.5552 267.434 38.0713 271.85C38.1484 272.076 38.2412 272.293 38.3327 272.507C36.2241 273.882 34.2186 275.411 32.3323 277.08C32.1664 276.918 31.9964 276.759 31.8095 276.609C28.2676 273.734 22.8841 274.524 19.7852 278.375C16.6863 282.225 17.0405 287.679 20.5838 290.554C20.7668 290.704 20.9589 290.836 21.151 290.966C19.9198 293.168 18.8509 295.457 17.9528 297.816C17.7254 297.767 17.4954 297.723 17.2588 297.694C12.6412 297.13 8.15693 300.541 7.24203 305.306C6.32714 310.072 9.33322 314.406 13.9469 314.971C14.1887 315.001 14.4292 315.013 14.6684 315.021C14.6405 317.462 14.8004 319.902 15.1467 322.318C14.9128 322.396 14.6775 322.478 14.4449 322.581C9.98933 324.477 7.60668 329.596 9.12279 334.011C10.6389 338.426 18.026 341.909 22.4815 340.013C22.7103 339.916 20.3904 338.364 20.6008 338.25C21.779 340.29 23.126 342.227 24.6276 344.04C24.4551 344.222 24.2852 344.408 24.1244 344.608C21.0243 348.459 21.3798 353.912 24.923 356.787C28.4663 359.663 33.8484 358.873 36.9473 355.022C37.1081 354.823 37.2532 354.617 37.3956 354.409C39.4752 355.504 41.6429 356.421 43.8757 357.151C43.8103 357.389 43.745 357.626 43.7019 357.87C42.787 362.642 45.793 366.97 50.4067 367.535C55.0204 368.101 59.5086 364.688 60.4235 359.923C60.4719 359.674 60.5019 359.427 60.5294 359.18C62.9552 359.014 65.3646 358.661 67.7361 358.122C67.7949 358.356 67.8563 358.589 67.9361 358.82C69.4522 363.236 74.2946 365.278 78.7501 363.381C83.2057 361.485 85.5883 356.367 84.0722 351.951C83.9951 351.725 83.9023 351.51 83.8108 351.295C85.9194 349.919 87.9249 348.391 89.8112 346.721C89.9837 346.877 90.1536 347.037 90.3366 347.186ZM40.6932 337.211C27.8389 326.771 26.5319 306.974 37.7956 292.993C49.0592 279.011 68.604 276.142 81.4621 286.583C94.3203 297.023 95.6181 316.82 84.3597 330.802C73.1013 344.784 53.5513 347.653 40.6932 337.212V337.211Z" fill="url(#paint15_linear)"/>
<path d="M104.89 326.102C109.508 326.667 113.992 323.255 114.907 318.49C115.822 313.724 112.816 309.391 108.202 308.825C107.96 308.795 107.72 308.783 107.48 308.775C107.508 306.334 107.348 303.894 107.002 301.478C107.236 301.4 107.471 301.318 107.704 301.215C112.159 299.319 118.356 293.755 116.395 289.52C112.676 281.48 106.667 283.328 102.211 285.225C101.982 285.323 101.764 285.434 101.547 285.547C100.368 283.507 99.0214 281.571 97.5198 279.758C97.6923 279.575 97.8622 279.389 98.023 279.189C98.8191 278.216 99.4094 277.091 99.7577 275.881C100.106 274.671 100.205 273.403 100.049 272.153C94.8984 277.969 89.7977 283.828 84.7466 289.729C94.4523 300.657 94.5712 318.124 84.3545 330.809C75.7009 341.555 62.1513 345.727 50.5034 342.347C49.6839 343.608 48.8723 344.878 48.0201 346.117C45.7029 349.481 43.1934 352.725 40.6814 355.961C41.734 356.403 42.8005 356.802 43.8809 357.155C43.8156 357.393 43.7502 357.63 43.7071 357.876C42.7922 362.648 44.8076 367.302 53.1174 368.623C57.7115 369.354 59.5217 364.695 60.4366 359.922C60.4849 359.672 60.515 359.426 60.5424 359.179C62.9682 359.013 65.3776 358.66 67.7492 358.121C67.808 358.355 67.8694 358.588 67.9491 358.819C69.4653 363.236 77.2575 366.642 81.7131 364.745C86.1686 362.849 85.6027 356.365 84.0853 351.95C84.0081 351.724 83.9153 351.508 83.8239 351.294C85.9325 349.918 87.938 348.389 89.8243 346.72C89.9902 346.882 90.1601 347.043 90.347 347.191C93.889 350.066 99.2725 349.276 102.371 345.426C105.47 341.575 105.116 336.122 101.573 333.247C101.39 333.098 101.198 332.965 101.006 332.835C102.237 330.633 103.306 328.344 104.204 325.985C104.429 326.029 104.653 326.073 104.89 326.102Z" fill="url(#paint16_linear)"/>
<path d="M112.37 310.221C112.128 310.192 111.888 310.179 111.647 310.172C111.675 307.73 111.515 305.291 111.169 302.874C111.403 302.797 111.638 302.714 111.871 302.612C116.326 300.715 118.709 295.598 117.193 291.182C115.677 286.765 110.834 284.724 106.379 286.621C106.15 286.718 105.932 286.829 105.715 286.942C104.535 284.904 103.187 282.968 101.684 281.157C101.856 280.974 102.026 280.788 102.187 280.589C105.287 276.738 104.932 271.285 101.389 268.409C97.8453 265.533 92.4631 266.324 89.3642 270.174C89.2035 270.374 89.0584 270.58 88.9159 270.787C86.8363 269.692 84.6686 268.775 82.4359 268.045C82.5012 267.808 82.5666 267.57 82.6097 267.326C83.5246 262.554 80.5185 258.227 75.9048 257.661C71.2911 257.096 66.8029 260.508 65.888 265.274C65.841 265.523 65.8096 265.77 65.7822 266.016C63.3574 266.186 60.9493 266.544 58.5794 267.086C58.5218 266.852 58.4591 266.619 58.3794 266.388C56.8633 261.973 52.0209 259.931 47.5653 261.827C43.1098 263.724 40.7259 268.842 42.2433 273.257C42.3204 273.483 42.4132 273.7 42.5047 273.913C40.396 275.289 38.3905 276.818 36.5043 278.487C36.3383 278.325 36.1684 278.165 35.9815 278.016C32.4395 275.141 27.056 275.931 23.9572 279.781C20.8583 283.632 21.2125 289.086 24.7557 291.961C24.9387 292.111 25.1308 292.243 25.323 292.373C24.0918 294.575 23.0229 296.864 22.1248 299.223C21.8973 299.174 21.6673 299.13 21.4307 299.101C16.8131 298.537 12.3289 301.946 11.414 306.713C10.4991 311.48 13.5052 315.812 18.1188 316.378C18.3606 316.408 18.6011 316.42 18.8403 316.428C18.8125 318.869 18.9724 321.309 19.3186 323.725C19.0847 323.803 18.8494 323.885 18.6168 323.988C14.1613 325.884 11.7773 331.003 13.2947 335.418C14.8121 339.833 19.6532 341.875 24.1088 339.979C24.3375 339.882 24.5558 339.77 24.774 339.657C25.9534 341.695 27.3013 343.629 28.8035 345.44C28.631 345.624 28.4611 345.809 28.3003 346.008C25.2001 349.859 25.5556 355.312 29.0989 358.188C32.6421 361.063 38.0243 360.273 41.1232 356.423C41.2839 356.223 41.429 356.017 41.5715 355.81C43.6511 356.905 45.8187 357.822 48.0515 358.551C47.9862 358.789 47.9208 359.027 47.8777 359.272C46.9628 364.044 49.9689 368.371 54.5826 368.937C59.1963 369.503 63.6845 366.092 64.5994 361.325C64.6477 361.075 64.6778 360.829 64.7052 360.582C67.131 360.416 69.5404 360.062 71.912 359.524C71.9695 359.758 72.0322 359.991 72.1119 360.222C73.628 364.637 78.4704 366.679 82.926 364.783C87.3815 362.886 89.7655 357.769 88.2481 353.353C88.1709 353.127 88.0781 352.912 87.9867 352.697C90.0953 351.321 92.1008 349.792 93.987 348.123C94.153 348.284 94.3229 348.444 94.5098 348.594C98.0518 351.469 103.435 350.679 106.534 346.829C109.633 342.978 109.279 337.524 105.736 334.649C105.553 334.501 105.36 334.367 105.168 334.237C106.4 332.035 107.468 329.746 108.367 327.387C108.594 327.436 108.824 327.48 109.061 327.509C113.678 328.073 118.162 324.664 119.077 319.897C119.992 315.13 116.987 310.791 112.37 310.221ZM88.5277 332.204C77.2693 346.185 57.7193 349.056 44.8612 338.615C32.003 328.175 30.7052 308.377 41.9636 294.396C53.222 280.414 72.772 277.545 85.6301 287.986C98.4883 298.426 99.7862 318.223 88.5277 332.204Z" fill="url(#paint17_linear)"/>
<path d="M281.59 340.702L234.043 347.472C233.396 347.564 232.74 347.394 232.218 347C231.696 346.607 231.35 346.021 231.258 345.372C231.166 344.722 231.335 344.063 231.727 343.539C232.119 343.014 232.702 342.668 233.349 342.575L280.896 335.805C281.542 335.714 282.199 335.883 282.721 336.277C283.243 336.671 283.589 337.256 283.681 337.905C283.773 338.555 283.604 339.214 283.212 339.738C282.82 340.262 282.236 340.609 281.59 340.702Z" fill="#D8DEE8"/>
<path d="M282.919 329.399L293.417 327.905C293.475 327.896 293.534 327.911 293.58 327.947C293.627 327.982 293.658 328.035 293.666 328.093L294.45 333.644C294.458 333.702 294.443 333.762 294.408 333.809C294.373 333.856 294.321 333.887 294.263 333.895L283.765 335.39L282.919 329.399Z" fill="#D8DEE8"/>
<path d="M101.582 359.584L97.1487 360.216C96.9093 360.249 96.6664 360.186 96.4732 360.04C96.28 359.894 96.1521 359.678 96.1174 359.437C96.0842 359.197 96.1471 358.953 96.2923 358.759C96.4375 358.565 96.6533 358.437 96.8925 358.402L101.326 357.77L101.582 359.584Z" fill="#26264F"/>
<path d="M98.8935 359.042C98.9565 359.488 99.1706 359.898 99.4996 360.203C99.8287 360.509 100.253 360.691 100.7 360.718L119.727 361.913L118.112 350.468L100.164 356.927C99.7419 357.079 99.385 357.372 99.1536 357.757C98.9221 358.143 98.8303 358.597 98.8935 359.042Z" fill="#D8DEE8"/>
<g style="mix-blend-mode:soft-light">
<path d="M99.994 358.075C100.029 358.327 100.702 358.452 101.605 358.376L120.02 355.226L119.577 352.092L101.458 357.342C100.57 357.515 99.9587 357.823 99.994 358.075Z" fill="white"/>
</g>
<path d="M284.741 338.206L119.28 361.977C116.133 362.425 114.517 350.98 117.664 350.532L283.13 326.761C283.576 326.697 284.031 326.723 284.467 326.835C284.904 326.948 285.314 327.146 285.675 327.418C286.035 327.69 286.339 328.031 286.568 328.421C286.797 328.811 286.948 329.242 287.011 329.69L287.665 334.308C287.728 334.756 287.703 335.213 287.59 335.652C287.477 336.091 287.279 336.503 287.008 336.865C286.736 337.227 286.396 337.532 286.007 337.762C285.618 337.992 285.188 338.143 284.741 338.206Z" fill="url(#paint18_linear)"/>
<g style="mix-blend-mode:soft-light">
<path d="M247.769 336.707L117.702 355.44L117.322 352.743L247.388 334.01L247.769 336.707Z" fill="white"/>
</g>
<path style="mix-blend-mode:multiply" d="M248.199 331.715L246.685 331.93L248.307 343.421L249.821 343.206L248.199 331.715Z" fill="url(#paint19_linear)"/>
<g style="mix-blend-mode:soft-light">
<path d="M282.901 326.778L281.387 326.994L283.01 338.485L284.524 338.27L282.901 326.778Z" fill="white"/>
</g>
<path style="mix-blend-mode:multiply" opacity="0.3" d="M283.126 326.761L203.84 338.263C195.17 347.098 188.899 348.754 184.473 348.186C181.399 347.792 177.37 346.086 171.37 347.291C165.575 348.452 165.37 350.834 160.621 351.228C153.582 351.801 150.914 346.821 145.722 348.655C142.933 349.642 143.459 351.169 139.66 353.744C138.251 354.699 132.381 358.675 125.363 357.313C121.28 356.525 118.293 354.21 116.288 352.04C115.253 355.232 116.782 362.338 119.275 361.982L284.74 338.211C285.186 338.147 285.616 337.996 286.004 337.766C286.392 337.535 286.731 337.231 287.002 336.869C287.273 336.507 287.47 336.095 287.583 335.656C287.695 335.218 287.72 334.761 287.657 334.313L287.003 329.696C286.941 329.247 286.791 328.816 286.562 328.425C286.333 328.035 286.03 327.694 285.67 327.422C285.31 327.149 284.9 326.951 284.463 326.837C284.027 326.724 283.572 326.698 283.126 326.761Z" fill="url(#paint20_linear)"/>
<path d="M264.045 359.162C264.045 359.162 253.908 363.817 253.745 364.557C253.581 365.298 260.27 364.295 263.002 364.393C265.734 364.492 267.979 363.677 267.729 362.515C267.48 361.354 266.516 358.434 266.516 358.434L264.045 359.162Z" fill="url(#paint21_linear)"/>
<path d="M263.665 355.404L264.293 359.991C264.293 359.991 265.901 360.562 266.979 359.88L267.427 354.846L263.665 355.404Z" fill="url(#paint22_linear)"/>
<path d="M311.456 355.399L312.641 357.299C312.805 357.561 312.914 357.854 312.961 358.16C313.009 358.466 312.993 358.778 312.916 359.078C312.507 360.66 311.69 363.746 311.332 364.552C310.846 365.648 304.274 366.315 304.274 366.315C304.274 366.315 303.686 365.489 305.048 364.486C306.41 363.484 307.285 363.325 307.762 361.848C308.239 360.372 308.547 356.205 308.547 356.205L311.456 355.399Z" fill="url(#paint23_linear)"/>
<path d="M306.53 350.576C306.963 350.92 309.086 357.343 309.086 357.343C309.086 357.343 309.771 358.218 311.065 356.921C312.359 355.625 311.651 356.34 311.651 356.34L311.389 350.018L306.53 350.576Z" fill="url(#paint24_linear)"/>
<path d="M257.86 263.241C257.357 276.928 257.371 291.797 258.194 307.681C259.119 325.565 260.938 342.095 263.205 357.076C264.036 357.101 264.904 357.103 265.818 357.076C266.434 357.058 267.031 357.026 267.609 356.984C269.075 353.029 270.321 348.994 271.341 344.899C272.495 340.242 273.36 335.518 273.932 330.754C275.85 315.247 273.556 313.9 275.109 302.404C276.489 292.226 278.486 291.825 280.795 277.373C283.302 261.693 281.402 259.346 280.479 258.499C276.559 254.896 267.356 257.38 257.86 263.241Z" fill="url(#paint25_linear)"/>
<path style="mix-blend-mode:multiply" opacity="0.3" d="M280.488 258.504C276.741 255.064 268.193 257.173 259.172 262.458C269.591 273.707 270.741 281.018 269.507 285.766C268.112 291.133 263.835 292.688 263.866 298.552C263.904 305.759 270.385 307.653 270.27 315.28C270.192 320.322 267.345 320.277 266.688 326.508C265.903 333.88 269.635 336.41 268.443 341.863C267.931 344.21 266.459 347.279 262.254 350.447C262.563 352.685 262.88 354.901 263.21 357.075C264.041 357.1 264.909 357.102 265.824 357.075C266.439 357.057 267.037 357.025 267.613 356.983C269.079 353.027 270.325 348.993 271.345 344.898C272.499 340.241 273.364 335.517 273.936 330.752C275.854 315.245 273.56 313.899 275.113 302.403C276.493 292.225 278.49 291.823 280.799 277.372C283.311 261.697 281.411 259.35 280.488 258.504Z" fill="url(#paint26_linear)"/>
<path d="M264.297 262.995C274.883 278.465 284.036 294.876 291.643 312.022C297.547 325.334 302.501 339.05 306.467 353.067C307.403 353.5 308.441 353.659 309.463 353.526C310.776 353.334 311.978 352.679 312.852 351.677C313.99 344.46 314.234 337.129 313.577 329.852C313.262 326.378 312.704 320.594 310.482 313.457C307.999 305.462 306.3 305.016 303.051 296.56C299.685 287.782 300.49 285.588 297.261 274.6C295.318 268.016 292.912 261.58 290.062 255.338L264.297 262.995Z" fill="url(#paint27_linear)"/>
<path d="M235.746 245.474C236.85 246.102 238 246.644 239.187 247.095C248.123 250.517 257.639 246.592 263.203 239.351C263.323 239.203 263.436 239.049 263.544 238.897C263.612 238.809 263.675 238.716 263.74 238.628C263.832 238.497 263.921 238.365 264.008 238.242C265.073 236.685 266.255 234.792 266.54 234.94C266.559 234.948 266.63 234.973 266.638 235.008C266.638 235.016 266.699 235.028 266.699 235.041C266.699 236.155 261.21 245.53 258.759 256.128C257.452 261.807 257.761 264.466 255.31 268.248C254.753 269.105 254.054 269.997 254.295 271.01C254.9 273.549 260.671 274.207 264.681 274.667C268.911 275.146 272.857 275.101 276.758 275.045C283.003 274.953 283.493 274.626 284.919 275.331C289.265 277.47 288.97 282.599 292.238 283.287C294.983 283.858 297.769 280.781 298.65 279.804C303.24 274.731 302.996 268.614 303.809 262.444C305.704 248.097 313.462 232.378 321.061 222.428C323.364 219.41 324.966 217.827 325.067 215.019C325.36 206.79 312.37 197.695 301.559 196.658C298.595 196.368 293.289 196.461 288.309 196.931C286.322 197.12 284.204 197.397 281.928 197.796C276.409 198.765 272.568 199.44 268.655 201.239C252.866 208.49 260.227 218.232 243.141 229.397C237.259 233.235 227.628 221.156 227.718 224.502C227.792 227.426 224.587 239.058 235.746 245.474Z" fill="url(#paint28_linear)"/>
<path d="M292.505 188.115C292.505 188.115 293.183 191.921 294.743 194.62C296.154 197.065 301.987 197.94 303.201 198.367C304.415 198.793 301.371 200.917 298.126 201.687C294.881 202.458 285.402 202.962 283.545 201.937C281.688 200.912 284.752 200.598 286.981 199.421C289.211 198.243 289.959 193.456 289.267 191.415C288.576 189.374 292.505 188.115 292.505 188.115Z" fill="url(#paint29_linear)"/>
<path d="M286.347 187.015C283.995 185.328 283.341 180.761 284.648 179.736C285.022 179.444 285.379 179.578 290.688 181.717C293.324 182.779 294.621 183.344 295.048 184.514C295.309 185.228 295.266 186.191 294.979 186.951C294.83 187.345 294.541 187.829 293.899 188.757C293.329 189.581 293.367 189.554 293.192 189.792C292.772 190.367 291.962 191.337 290.477 192.459C290.378 191.944 290.233 191.439 290.046 190.949C289.803 190.312 289.481 189.709 289.085 189.155C288.16 187.916 287.111 187.564 286.347 187.015Z" fill="url(#paint30_linear)"/>
<path d="M292.374 191.357C292.374 191.357 290.834 193.659 287.984 193.347C285.431 193.067 285.307 187.286 286.996 186.128C287.559 185.744 288.658 185.623 289.536 185.912C290.059 186.082 290.223 186.305 291.075 186.568C291.859 186.809 292.089 186.731 292.32 186.944C292.609 187.207 292.802 187.844 292.227 189.506C292.737 189.031 293.332 188.866 293.738 189.081C293.877 189.164 293.99 189.285 294.065 189.429C294.396 190.114 293.761 190.929 292.374 191.357Z" fill="url(#paint31_linear)"/>
<path style="mix-blend-mode:multiply" opacity="0.4" d="M235.746 245.474C236.85 246.103 238 246.644 239.187 247.095C248.123 250.518 257.639 246.592 263.203 239.351C263.323 239.203 263.436 239.049 263.544 238.897C263.612 238.809 263.675 238.716 263.74 238.628C263.832 238.497 263.921 238.365 264.008 238.242C265.073 236.686 266.255 234.792 266.54 234.94C266.559 234.948 266.573 234.973 266.58 235.008C266.58 235.016 266.58 235.028 266.58 235.041C267.438 233.69 268.296 232.34 269.156 230.991C268.227 229.37 266.914 227.716 265.303 227.673C261.887 227.589 261.006 234.821 255.13 239.574C251.601 242.43 248.761 242.378 241.623 243.991C239.907 244.381 237.94 244.858 235.746 245.474Z" fill="url(#paint32_linear)"/>
<path d="M343.645 263.075L214.469 202.336L205.494 221.391L334.494 283.46C335.822 284.098 337.33 284.246 338.755 283.879C340.18 283.512 341.432 282.653 342.289 281.452C344.111 278.909 346.01 274.841 346.707 268.542C346.828 267.423 346.598 266.295 346.049 265.315C345.5 264.335 344.659 263.551 343.645 263.075Z" fill="url(#paint33_linear)"/>
<path d="M173.576 193.222L191.835 197.291C191.574 199.842 190.419 203.065 187.237 206.583L172.784 194.866C172.619 194.734 172.504 194.549 172.458 194.342C172.411 194.135 172.436 193.918 172.528 193.727C172.62 193.537 172.774 193.383 172.964 193.291C173.155 193.199 173.37 193.175 173.576 193.222Z" fill="url(#paint34_linear)"/>
<path d="M214.469 202.336C214.127 214.79 205.494 221.391 205.494 221.391L187.237 206.582C190.419 203.064 191.571 199.841 191.835 197.289L214.469 202.336Z" fill="url(#paint35_linear)"/>
<path d="M341.403 268.968C341.498 268.983 341.595 268.962 341.676 268.909C341.757 268.856 341.815 268.776 341.841 268.683C341.866 268.589 341.856 268.49 341.813 268.404C341.771 268.317 341.698 268.249 341.608 268.213L217.994 210.388C217.947 210.366 217.896 210.353 217.845 210.351C217.793 210.349 217.741 210.357 217.692 210.375C217.644 210.393 217.599 210.42 217.561 210.455C217.522 210.49 217.491 210.533 217.47 210.58C217.448 210.627 217.435 210.678 217.433 210.73C217.431 210.782 217.439 210.834 217.457 210.883C217.474 210.932 217.502 210.977 217.537 211.015C217.572 211.054 217.614 211.085 217.661 211.107L341.275 268.93C341.315 268.95 341.359 268.963 341.403 268.968Z" fill="#7D97F4"/>
<path d="M338.451 276.499C338.546 276.514 338.643 276.493 338.724 276.44C338.804 276.387 338.863 276.307 338.888 276.214C338.914 276.12 338.904 276.021 338.861 275.935C338.818 275.848 338.745 275.78 338.656 275.744L215.042 217.921C214.947 217.877 214.838 217.872 214.74 217.908C214.641 217.944 214.561 218.018 214.517 218.113C214.473 218.209 214.468 218.318 214.504 218.417C214.54 218.516 214.614 218.596 214.709 218.64L338.323 276.464C338.363 276.483 338.406 276.495 338.451 276.499Z" fill="#7D97F4"/>
<path d="M316.717 271.531C321.039 271.925 330.769 272.096 337.651 265.702C349.108 255.059 343.424 234.8 339.436 226.086C334.862 216.097 327.587 210.505 323.164 207.107C317.675 202.891 314.329 200.317 310.299 200.893C299.879 202.383 292.663 223.83 298.383 229.97C300.256 231.98 302.111 230.841 307.532 232.575C309.297 233.139 322.47 237.352 324.764 247.095C326.369 253.92 322.28 261.898 315.008 267.261L316.717 271.531Z" fill="url(#paint36_linear)"/>
<path style="mix-blend-mode:multiply" opacity="0.4" d="M268.265 267.998C273.159 264.893 273.885 261.746 279.363 259.618C286.482 256.856 289.902 260.365 293.433 257.531C297.633 254.16 293.915 248.284 297.058 238.089C297.591 236.357 301.644 223.214 310.942 221.54C315.278 220.759 321.006 222.427 323.211 226.116C324.938 229.004 323.329 231.156 325.433 234.344C327.537 237.532 330.04 236.751 332.715 239.408C336.963 243.626 337.614 252.523 333.779 257.554C331.991 259.9 329.666 260.835 325.293 262.574C322.93 263.515 320.486 264.235 317.991 264.724C323.35 259.563 326.124 252.912 324.756 247.093C323.326 241.021 317.669 237.096 313.184 234.865C308.694 243.349 305.026 253.179 303.805 262.44C302.991 268.609 303.236 274.729 298.646 279.803C297.763 280.779 294.977 283.858 292.233 283.283C288.965 282.6 289.258 277.469 284.914 275.327C283.488 274.624 282.996 274.95 276.749 275.042C272.846 275.1 268.9 275.146 264.667 274.664C261.102 274.257 256.145 273.688 254.666 271.777C261.106 271.608 265.402 269.816 268.265 267.998Z" fill="url(#paint37_linear)"/>
<path d="M316.349 270.615L315.386 268.212C315.386 268.212 313.818 268.308 312.525 267.38C311.822 266.874 310.575 266.724 310.213 266.825C309.851 266.926 308.481 266.866 310.042 267.612C311.602 268.359 311.589 268.916 310.94 269.529C310.29 270.142 307.815 271.462 306.925 271.525C306.035 271.588 307.645 272.969 308.543 273.148C309.441 273.328 310.914 273.542 312.737 272.471C313.401 272.073 316.349 270.615 316.349 270.615Z" fill="url(#paint38_linear)"/>
<path d="M236.937 229.854C234.567 228.216 234.198 224.654 230.715 224.404C230.715 224.404 227.818 223.7 229.278 226.922C230.737 230.144 237.825 232.598 236.937 229.854Z" fill="url(#paint39_linear)"/>
</g>
<defs>
<linearGradient id="paint0_linear" x1="223.333" y1="-8.59133" x2="183.446" y2="569.578" gradientUnits="userSpaceOnUse">
<stop stop-color="#FFC444"/>
<stop offset="1" stop-color="#F36F56"/>
</linearGradient>
<linearGradient id="paint1_linear" x1="127.503" y1="165.263" x2="344.05" y2="165.263" gradientUnits="userSpaceOnUse">
<stop stop-color="#FF9085"/>
<stop offset="1" stop-color="#FB6FBB"/>
</linearGradient>
<linearGradient id="paint2_linear" x1="32.2409" y1="193.108" x2="272.331" y2="193.108" gradientUnits="userSpaceOnUse">
<stop stop-color="#444B8C"/>
<stop offset="1" stop-color="#26264F"/>
</linearGradient>
<linearGradient id="paint3_linear" x1="40.1992" y1="193.011" x2="272.658" y2="193.011" gradientUnits="userSpaceOnUse">
<stop stop-color="#E38DDD"/>
<stop offset="1" stop-color="#9571F6"/>
</linearGradient>
<linearGradient id="paint4_linear" x1="93328" y1="23265.6" x2="203671" y2="23265.6" gradientUnits="userSpaceOnUse">
<stop stop-color="#444B8C"/>
<stop offset="1" stop-color="#26264F"/>
</linearGradient>
<linearGradient id="paint5_linear" x1="73.943" y1="149.512" x2="142.339" y2="149.512" gradientUnits="userSpaceOnUse">
<stop stop-color="#AB316D"/>
<stop offset="1" stop-color="#792D3D"/>
</linearGradient>
<linearGradient id="paint6_linear" x1="108.344" y1="125.479" x2="108.471" y2="149.871" gradientUnits="userSpaceOnUse">
<stop stop-color="#F36F56"/>
<stop offset="1" stop-color="#FFC444"/>
</linearGradient>
<linearGradient id="paint7_linear" x1="17052.5" y1="18212.3" x2="15458.1" y2="25689.1" gradientUnits="userSpaceOnUse">
<stop stop-color="#F36F56"/>
<stop offset="1" stop-color="#FFC444"/>
</linearGradient>
<linearGradient id="paint8_linear" x1="20647.2" y1="14383.4" x2="20306.7" y2="17127.1" gradientUnits="userSpaceOnUse">
<stop stop-color="#444B8C"/>
<stop offset="1" stop-color="#26264F"/>
</linearGradient>
<linearGradient id="paint9_linear" x1="3152.35" y1="4402.43" x2="2660.15" y2="6041.16" gradientUnits="userSpaceOnUse">
<stop stop-color="#F36F56"/>
<stop offset="1" stop-color="#FFC444"/>
</linearGradient>
<linearGradient id="paint10_linear" x1="2674.03" y1="4335.63" x2="2147.47" y2="6058.54" gradientUnits="userSpaceOnUse">
<stop stop-color="#F36F56"/>
<stop offset="1" stop-color="#FFC444"/>
</linearGradient>
<linearGradient id="paint11_linear" x1="6092.49" y1="16383" x2="6925.42" y2="16383" gradientUnits="userSpaceOnUse">
<stop stop-color="#FF9085"/>
<stop offset="1" stop-color="#FB6FBB"/>
</linearGradient>
<linearGradient id="paint12_linear" x1="6092.49" y1="18147" x2="6925.42" y2="18147" gradientUnits="userSpaceOnUse">
<stop stop-color="#FF9085"/>
<stop offset="1" stop-color="#FB6FBB"/>
</linearGradient>
<linearGradient id="paint13_linear" x1="6092.49" y1="19125.7" x2="6925.42" y2="19125.7" gradientUnits="userSpaceOnUse">
<stop stop-color="#FF9085"/>
<stop offset="1" stop-color="#FB6FBB"/>
</linearGradient>
<linearGradient id="paint14_linear" x1="6092.49" y1="20877.9" x2="6925.42" y2="20877.9" gradientUnits="userSpaceOnUse">
<stop stop-color="#FF9085"/>
<stop offset="1" stop-color="#FB6FBB"/>
</linearGradient>
<linearGradient id="paint15_linear" x1="184.289" y1="376.69" x2="67.5486" y2="315.291" gradientUnits="userSpaceOnUse">
<stop stop-color="#311944"/>
<stop offset="1" stop-color="#A03976"/>
</linearGradient>
<linearGradient id="paint16_linear" x1="149308" y1="290093" x2="73356.2" y2="273155" gradientUnits="userSpaceOnUse">
<stop stop-color="#311944"/>
<stop offset="1" stop-color="#A03976"/>
</linearGradient>
<linearGradient id="paint17_linear" x1="53487.5" y1="230053" x2="55197.4" y2="363868" gradientUnits="userSpaceOnUse">
<stop stop-color="#FF9085"/>
<stop offset="1" stop-color="#FB6FBB"/>
</linearGradient>
<linearGradient id="paint18_linear" x1="300759" y1="65207.2" x2="303037" y2="76675.5" gradientUnits="userSpaceOnUse">
<stop stop-color="#FFC444"/>
<stop offset="1" stop-color="#F36F56"/>
</linearGradient>
<linearGradient id="paint19_linear" x1="247.459" y1="337.704" x2="248.973" y2="337.49" gradientUnits="userSpaceOnUse">
<stop stop-color="#AA80F9"/>
<stop offset="1" stop-color="#6165D7"/>
</linearGradient>
<linearGradient id="paint20_linear" x1="300703" y1="65195" x2="302987" y2="76693.1" gradientUnits="userSpaceOnUse">
<stop stop-color="#F36F56"/>
<stop offset="1" stop-color="#FFC444"/>
</linearGradient>
<linearGradient id="paint21_linear" x1="1015.07" y1="17072.6" x2="1075.6" y2="18650.9" gradientUnits="userSpaceOnUse">
<stop stop-color="#311944"/>
<stop offset="1" stop-color="#A03976"/>
</linearGradient>
<linearGradient id="paint22_linear" x1="866.861" y1="15113.3" x2="836.63" y2="13748.7" gradientUnits="userSpaceOnUse">
<stop stop-color="#FFC444"/>
<stop offset="1" stop-color="#F36F56"/>
</linearGradient>
<linearGradient id="paint23_linear" x1="4144.01" y1="28551.5" x2="4409.72" y2="31221.9" gradientUnits="userSpaceOnUse">
<stop stop-color="#311944"/>
<stop offset="1" stop-color="#A03976"/>
</linearGradient>
<linearGradient id="paint24_linear" x1="2828.73" y1="21240.4" x2="2785.71" y2="19305.1" gradientUnits="userSpaceOnUse">
<stop stop-color="#FFC444"/>
<stop offset="1" stop-color="#F36F56"/>
</linearGradient>
<linearGradient id="paint25_linear" x1="257.594" y1="306.989" x2="282.164" y2="306.929" gradientUnits="userSpaceOnUse">
<stop stop-color="#444B8C"/>
<stop offset="1" stop-color="#3E4177"/>
</linearGradient>
<linearGradient id="paint26_linear" x1="771.139" y1="234618" x2="5071.38" y2="234618" gradientUnits="userSpaceOnUse">
<stop stop-color="#444B8C"/>
<stop offset="1" stop-color="#3E4177"/>
</linearGradient>
<linearGradient id="paint27_linear" x1="3965.9" y1="228039" x2="22751.4" y2="228039" gradientUnits="userSpaceOnUse">
<stop stop-color="#444B8C"/>
<stop offset="1" stop-color="#3E4177"/>
</linearGradient>
<linearGradient id="paint28_linear" x1="-104404" y1="271633" x2="-104404" y2="148382" gradientUnits="userSpaceOnUse">
<stop stop-color="#AA80F9"/>
<stop offset="1" stop-color="#6165D7"/>
</linearGradient>
<linearGradient id="paint29_linear" x1="-9542.67" y1="22561.1" x2="-9951.41" y2="27694.9" gradientUnits="userSpaceOnUse">
<stop stop-color="#FFC444"/>
<stop offset="1" stop-color="#F36F56"/>
</linearGradient>
<linearGradient id="paint30_linear" x1="14463.6" y1="30966.3" x2="13651.8" y2="28904.7" gradientUnits="userSpaceOnUse">
<stop stop-color="#444B8C"/>
<stop offset="1" stop-color="#3E4177"/>
</linearGradient>
<linearGradient id="paint31_linear" x1="-3676.03" y1="10972.6" x2="-3454.05" y2="12967.1" gradientUnits="userSpaceOnUse">
<stop stop-color="#FFC444"/>
<stop offset="1" stop-color="#F36F56"/>
</linearGradient>
<linearGradient id="paint32_linear" x1="-37379.4" y1="37720.5" x2="-45920.8" y2="37720.5" gradientUnits="userSpaceOnUse">
<stop stop-color="#AA80F9"/>
<stop offset="1" stop-color="#6165D7"/>
</linearGradient>
<linearGradient id="paint33_linear" x1="281.527" y1="240.833" x2="218.388" y2="270.617" gradientUnits="userSpaceOnUse">
<stop stop-color="#09005D"/>
<stop offset="1" stop-color="#1A0F91"/>
</linearGradient>
<linearGradient id="paint34_linear" x1="29295.6" y1="22987.3" x2="27035.2" y2="19469.2" gradientUnits="userSpaceOnUse">
<stop stop-color="#09005D"/>
<stop offset="1" stop-color="#1A0F91"/>
</linearGradient>
<linearGradient id="paint35_linear" x1="183.992" y1="184.491" x2="269.721" y2="291.793" gradientUnits="userSpaceOnUse">
<stop stop-color="#FE7062"/>
<stop offset="1" stop-color="#FF928E"/>
</linearGradient>
<linearGradient id="paint36_linear" x1="-35066.9" y1="221684" x2="-35066.9" y2="121116" gradientUnits="userSpaceOnUse">
<stop stop-color="#AA80F9"/>
<stop offset="1" stop-color="#6165D7"/>
</linearGradient>
<linearGradient id="paint37_linear" x1="-63754.3" y1="119438" x2="-12756.4" y2="119438" gradientUnits="userSpaceOnUse">
<stop stop-color="#AA80F9"/>
<stop offset="1" stop-color="#6165D7"/>
</linearGradient>
<linearGradient id="paint38_linear" x1="-7391.69" y1="13190.6" x2="-8084.13" y2="16327.2" gradientUnits="userSpaceOnUse">
<stop stop-color="#FFC444"/>
<stop offset="1" stop-color="#F36F56"/>
</linearGradient>
<linearGradient id="paint39_linear" x1="-36360.6" y1="-14724.7" x2="-39486.1" y2="-15395.1" gradientUnits="userSpaceOnUse">
<stop stop-color="#FFC444"/>
<stop offset="1" stop-color="#F36F56"/>
</linearGradient>
<clipPath id="clip0">
<rect width="353" height="369" fill="white"/>
</clipPath>
</defs>
</svg>
